<svg width="230" height="70" viewBox="0 0 230 70" fill="none" xmlns="http://www.w3.org/2000/svg">
<g clip-path="url(#clip0_43_286)">
<path d="M42.5888 46.2965C38.0115 41.7464 37.3584 38.5804 37.3584 30.2041C37.3584 21.894 37.8161 18.728 42.3907 14.4404C46.7698 10.3517 49.5162 9.9566 56.3795 9.9566C63.1785 9.9566 65.8579 10.2854 70.3682 14.4404C74.9456 18.6617 75.3363 21.8277 75.3363 30.1378C75.3363 38.5141 74.6162 41.6801 70.0417 46.2965C66.1844 50.1863 63.1785 50.8466 56.3795 50.8466C49.519 50.8466 46.5773 50.2526 42.5888 46.2965ZM63.9655 30.4693C63.9655 21.6979 63.0501 19.2584 56.3822 19.2584C49.8456 19.2584 48.7347 22.0957 48.7347 30.4693C48.7347 39.6357 49.7144 41.5503 56.3822 41.5503C62.8547 41.5475 63.9655 39.7683 63.9655 30.4693Z" fill="#242424"/>
<path d="M80.698 10.6169H91.0919C91.2872 11.5396 91.6808 14.1779 91.8762 17.2776C92.3981 16.4875 92.987 15.6283 93.7071 14.7056C96.8442 10.6169 99.0687 9.9566 103.839 9.9566C109.133 9.9566 111.028 10.3517 113.839 13.1889C116.845 16.2886 116.976 18.3993 116.976 21.894V50.1863H105.667V26.3778C105.667 21.5625 104.361 20.5735 99.5209 20.5735C93.5731 20.5735 92.0018 22.7504 92.0018 27.9608V50.1863H80.6924V10.6169H80.698Z" fill="#242424"/>
<path d="M150.971 50.189C150.645 49.4625 149.924 47.4181 149.534 45.045C147.572 49.0674 144.566 50.8493 139.598 50.8493C134.367 50.8493 131.95 50.7167 127.766 46.8932C123.909 43.3985 122.209 40.6938 122.209 29.9444C122.209 20.7779 122.731 18.5346 126.915 14.247C130.705 10.3572 134.105 9.95935 138.224 9.95935C143.128 9.95935 146.265 11.0147 148.881 15.3023C148.881 9.30184 149.207 2.24327 149.534 0H160.254V50.189H150.971ZM148.881 27.4994C148.881 22.1564 146.918 19.7833 141.428 19.7833C135.481 19.7833 134.108 21.4326 134.108 29.9388C134.108 39.4368 135.743 41.0861 141.428 41.0861C146.201 41.0861 148.881 39.4368 148.881 32.7761V27.4994Z" fill="#242424"/>
<path d="M198.757 48.8022C197.319 49.3962 194.967 49.9902 192.937 50.3189C190.389 50.714 187.38 50.8466 184.176 50.8466C177.704 50.8466 174.502 50.12 170.709 46.2965C166.263 41.879 165.479 39.2407 165.479 30.2041C165.479 21.894 166.001 18.5954 170.511 14.5067C174.89 10.418 177.375 9.9566 183.847 9.9566C189.404 9.9566 193.261 10.7467 196.203 14.2442C199.407 18.0042 199.471 19.2557 199.471 23.1483C199.471 25.9855 198.949 28.1597 196.987 30.2704C194.503 32.975 192.803 33.6988 189.666 33.6988H183.325C181.494 33.6988 179.077 33.5662 176.853 33.4336C177.115 40.2269 178.488 41.5447 185.156 41.5447C189.404 41.5447 193.917 40.9508 197.118 40.622L198.757 48.8022ZM176.922 27.1044H184.112C188.36 27.1044 188.885 26.3142 188.885 23.5433C188.885 20.3773 187.707 19.2557 183.59 19.2557C178.558 19.2557 177.185 20.8387 176.922 27.1044Z" fill="#242424"/>
<path d="M204.442 10.6169H214.836C215.032 11.6722 215.489 14.9045 215.685 18.4656C216.469 17.3439 217.449 16.156 218.626 14.8382C222.352 10.7495 224.705 9.9566 230 9.9566V22.3554C218.233 22.3554 215.749 24.6649 215.749 33.5027V50.1891H204.439V10.6169H204.442Z" fill="#242424"/>
<path d="M20.2436 34.2569H16.5566L10.9493 10.6169H0L9.59007 44.8268H18.1447L14.9517 57.7532L24.726 56.4575L36.4066 10.6169H25.5186L20.2436 34.2569Z" fill="#242424"/>
<path d="M25.3373 60.8722H9.82739V70H25.3373V60.8722Z" fill="#FD6555"/>
</g>
<defs>
<clipPath id="clip0_43_286">
<rect width="230" height="70" fill="white"/>
</clipPath>
</defs>
</svg>
